<svg width="30" height="30" viewBox="0 0 30 30" fill="none" xmlns="http://www.w3.org/2000/svg">
<path id="Subtract" fill-rule="evenodd" clip-rule="evenodd" d="M6.7148 0.98877C5.06694 0.988769 3.48655 1.64321 2.32112 2.8082C1.15568 3.97318 0.500633 5.55333 0.5 7.20118V23.774C0.5 25.4222 1.15477 27.003 2.32027 28.1685C3.48577 29.334 5.06653 29.9888 6.7148 29.9888H23.2876C24.9354 29.9881 26.5156 29.3331 27.6806 28.1677C28.8456 27.0022 29.5 25.4218 29.5 23.774V7.20118C29.4994 5.55374 28.8446 3.97396 27.6797 2.80904C26.5148 1.64413 24.935 0.989402 23.2876 0.98877H6.7148ZM25.0752 7.21073C25.0752 7.68546 24.8866 8.14075 24.5509 8.47643C24.2152 8.81212 23.7599 9.0007 23.2852 9.0007C22.8105 9.0007 22.3552 8.81212 22.0195 8.47643C21.6838 8.14075 21.4952 7.68546 21.4952 7.21073C21.4952 6.736 21.6838 6.28071 22.0195 5.94502C22.3552 5.60934 22.8105 5.42075 23.2852 5.42075C23.7599 5.42075 24.2152 5.60934 24.5509 5.94502C24.8866 6.28071 25.0752 6.736 25.0752 7.21073ZM15.0036 10.5234C13.687 10.5234 12.4243 11.0464 11.4934 11.9774C10.5624 12.9083 10.0394 14.171 10.0394 15.4876C10.0394 16.8042 10.5624 18.0668 11.4934 18.9978C12.4243 19.9288 13.687 20.4518 15.0036 20.4518C16.3202 20.4518 17.5828 19.9288 18.5138 18.9978C19.4448 18.0668 19.9678 16.8042 19.9678 15.4876C19.9678 14.171 19.4448 12.9083 18.5138 11.9774C17.5828 11.0464 16.3202 10.5234 15.0036 10.5234ZM7.65036 15.4876C7.65036 14.5223 7.84049 13.5664 8.20991 12.6745C8.57932 11.7827 9.12078 10.9723 9.80337 10.2898C10.486 9.60716 11.2963 9.0657 12.1882 8.69629C13.08 8.32688 14.0359 8.13674 15.0012 8.13674C15.9665 8.13674 16.9224 8.32688 17.8142 8.69629C18.7061 9.0657 19.5164 9.60716 20.199 10.2898C20.8816 10.9723 21.4231 11.7827 21.7925 12.6745C22.1619 13.5664 22.352 14.5223 22.352 15.4876C22.352 17.4371 21.5776 19.3069 20.199 20.6854C18.8205 22.0639 16.9508 22.8384 15.0012 22.8384C13.0516 22.8384 11.1819 22.0639 9.80337 20.6854C8.42482 19.3069 7.65036 17.4371 7.65036 15.4876Z" fill="#1E1E1E"/>
</svg>
