<svg width="34" height="30" viewBox="0 0 34 30" fill="none" xmlns="http://www.w3.org/2000/svg">
<path id="Union" fill-rule="evenodd" clip-rule="evenodd" d="M20.5397 1.25206C23.6631 0.434973 27.4318 1.56182 29.7276 4.04724H32.3016C32.5045 4.04742 32.704 4.09992 32.8815 4.19983C33.059 4.29973 33.2086 4.44377 33.3165 4.61848C33.4243 4.79318 33.4868 4.99284 33.4981 5.19879C33.5094 5.40473 33.4692 5.61022 33.3811 5.79605L30.8503 11.1279C31.57 17.3426 29.1782 23.2842 24.3684 26.7964C19.4506 30.3892 12.213 31.2941 3.62968 27.7184C3.16401 27.539 2.76479 27.2167 2.48741 26.7962C2.21002 26.3757 2.06822 25.8779 2.08166 25.3717C2.09511 24.8656 2.26314 24.3763 2.56245 23.9716C2.86176 23.5669 3.27751 23.267 3.75203 23.1134C5.06892 22.7508 6.33115 22.2076 7.50395 21.4988C4.87686 19.894 2.82005 17.481 1.63106 14.609C0.442076 11.7369 0.182578 8.55478 0.890109 5.52287C0.943913 5.07014 1.12147 4.64181 1.40263 4.28651C1.68378 3.93121 2.05728 3.66316 2.48071 3.51279C2.90415 3.36243 3.36056 3.33577 3.79815 3.43584C4.23573 3.53592 4.63696 3.75871 4.95629 4.07894C8.34597 7.46681 11.3086 8.86684 13.3621 9.44002C14.1586 9.66197 14.8255 9.76197 15.334 9.80344C15.1757 7.65706 15.5355 5.86678 16.332 4.45212C17.3012 2.7277 18.8437 1.69597 20.5397 1.25206Z" fill="#1E1E1E"/>
</svg>
