<svg width="30" height="30" viewBox="0 0 30 30" fill="none" xmlns="http://www.w3.org/2000/svg">
<path id="Vector" d="M0.5 27.7578V3.2197C0.5 2.62802 0.735044 2.06057 1.15342 1.64219C1.5718 1.22381 2.13925 0.98877 2.73093 0.98877L27.2691 0.98877C27.562 0.98877 27.8521 1.04647 28.1228 1.15859C28.3935 1.2707 28.6394 1.43503 28.8466 1.64219C29.0537 1.84935 29.2181 2.09529 29.3302 2.36596C29.4423 2.63663 29.5 2.92673 29.5 3.2197V27.7578C29.5 28.0508 29.4423 28.3409 29.3302 28.6116C29.2181 28.8823 29.0537 29.1282 28.8466 29.3353C28.6394 29.5425 28.3935 29.7068 28.1228 29.819C27.8521 29.9311 27.562 29.9888 27.2691 29.9888H20.5784V19.4141H22.1609C22.5219 19.4141 22.868 19.2707 23.1233 19.0155C23.3785 18.7603 23.5219 18.4141 23.5219 18.0532V16.3381C23.5224 16.1592 23.4876 15.982 23.4194 15.8166C23.3512 15.6512 23.251 15.501 23.1245 15.3745C22.998 15.248 22.8477 15.1478 22.6824 15.0796C22.517 15.0114 22.3398 14.9766 22.1609 14.9771H20.6654V12.8788C20.6654 11.0041 21.5146 11.0041 22.3619 11.0041H23.4535C23.6332 11.0121 23.8125 10.9804 23.9786 10.9113C24.1447 10.8422 24.2936 10.7374 24.4146 10.6043C24.5445 10.4807 24.6473 10.3314 24.7165 10.166C24.7857 10.0005 24.8197 9.8225 24.8165 9.6432V7.99434C24.8277 7.62726 24.6929 7.27071 24.4417 7.00281C24.1905 6.7349 23.8433 6.57749 23.4763 6.56506H20.9119C20.1632 6.5367 19.4174 6.67124 18.7259 6.95937C18.0344 7.2475 17.4136 7.68235 16.9066 8.23387C16.3996 8.78539 16.0184 9.44042 15.7894 10.1537C15.5603 10.867 15.4889 11.6215 15.58 12.3651V14.9751H14.1507C13.9703 14.9723 13.7911 15.0055 13.6235 15.0726C13.456 15.1398 13.3036 15.2396 13.175 15.3663C13.0464 15.4929 12.9443 15.6439 12.8746 15.8104C12.8049 15.9768 12.7691 16.1555 12.7691 16.336V18.0553C12.7693 18.2357 12.8055 18.4144 12.8754 18.5808C12.9453 18.7471 13.0477 18.8979 13.1764 19.0244C13.3052 19.1509 13.4578 19.2504 13.6255 19.3173C13.7931 19.3842 13.9723 19.4171 14.1528 19.4141H15.58V29.9888H2.73093C2.43796 29.9888 2.14786 29.9311 1.87719 29.819C1.60652 29.7068 1.36058 29.5425 1.15342 29.3353C0.946263 29.1282 0.781934 28.8823 0.669819 28.6116C0.557705 28.3409 0.5 28.0508 0.5 27.7578Z" fill="#1E1E1E"/>
</svg>
